# xmcd
#
# Track frame offsets: 
#        150
#        68789
#        84499
#        107036
#        132822
#        160066
#        181436
#        199152
#        218993
#        243640
#        258914
#
# Disc length: 3697 seconds
#
# Revision: 1
# Processed by: cddbd v1.5.2PL0 Copyright (c) Steve Scherf et al.
# Submitted via: ExactAudioCopy v0.99pb5
#
DISCID=9a0e6f0b
DTITLE=Robert Incelli - Detalles
DYEAR=2005
DGENRE=Salsa
TTITLE0=Oscar D'Leon Medley
TTITLE1=Detalles (Oscar D'Leon)
TTITLE2=Mi bajo y yo
TTITLE3=Se solicita un novio
TTITLE4=Melao de caña
TTITLE5=El derecho de nacer
TTITLE6=Por que será
TTITLE7=Sigue tu camino
TTITLE8=Ven morena
TTITLE9=Riquiti
TTITLE10=Rumba rumbero
EXTD=
EXTT0=
EXTT1=
EXTT2=
EXTT3=
EXTT4=
EXTT5=
EXTT6=
EXTT7=
EXTT8=
EXTT9=
EXTT10=
PLAYORDER=
